<?xml version="1.0" encoding="utf-8"?>
<!-- Generator: Adobe Illustrator 16.0.0, SVG Export Plug-In . SVG Version: 6.00 Build 0)  -->
<!DOCTYPE svg PUBLIC "-//W3C//DTD SVG 1.1//EN" "http://www.w3.org/Graphics/SVG/1.1/DTD/svg11.dtd">
<svg version="1.1" id="logo" xmlns="http://www.w3.org/2000/svg" xmlns:xlink="http://www.w3.org/1999/xlink" x="0px" y="0px"
	 width="82.069px" height="40px" viewBox="0 0 82.069 40" enable-background="new 0 0 82.069 40" xml:space="preserve">
<path fill="#FFFFFF" d="M79.43,7.598c-1.12-4.052-4.805-6.861-9.008-6.861h-49.16c-4.205,0-7.889,2.809-9.008,6.861
	c-0.786,2.848-1.405,6.707-1.405,11.802c0,5.096,0.619,8.955,1.405,11.802c1.12,4.053,4.804,6.861,9.008,6.861h49.16
	c4.203,0,7.888-2.809,9.008-6.861c0.786-2.847,1.404-6.706,1.404-11.802C80.834,14.304,80.216,10.445,79.43,7.598"/>
<path fill="#231F20" d="M39.449,24.968c-0.222,1.037-0.865,1.682-1.612,1.938c-0.392,0.135-0.697,0.439-0.831,0.831
	c-0.258,0.747-0.901,1.39-1.938,1.613c-0.181,0.038-0.368,0.04-0.549,0c-1.808-0.39-2.429-2.059-1.864-3.329
	c0.218-0.488,0.127-1.059-0.251-1.438l-2.892-2.891l-2.891,2.891c-0.379,0.379-0.471,0.949-0.252,1.438
	c0.564,1.271-0.058,2.939-1.865,3.329c-0.18,0.04-0.367,0.038-0.548,0c-1.037-0.224-1.683-0.866-1.938-1.613
	c-0.135-0.392-0.439-0.696-0.831-0.831c-0.747-0.257-1.391-0.901-1.613-1.938c-0.039-0.18-0.04-0.368,0-0.548
	c0.39-1.808,2.059-2.429,3.327-1.864c0.49,0.218,1.06,0.126,1.439-0.252l2.891-2.892l-2.302-2.247
	c-0.379-0.378-0.949-0.469-1.438-0.252c-1.27,0.565-2.938-0.056-3.328-1.863c-0.04-0.18-0.039-0.368,0-0.548
	c0.096-0.446,0.27-0.818,0.496-1.119c-0.268-0.763-0.096-1.645,0.513-2.254c0.61-0.611,1.493-0.781,2.257-0.514
	c0.3-0.226,0.673-0.4,1.117-0.496c0.182-0.039,0.369-0.04,0.55,0c1.807,0.39,2.428,2.059,1.862,3.329
	c-0.217,0.488-0.126,1.06,0.253,1.438l2.302,2.247l2.302-2.247c0.379-0.378,0.47-0.95,0.251-1.438
	c-0.563-1.27,0.058-2.938,1.864-3.329c0.181-0.04,0.368-0.039,0.548,0c0.446,0.096,0.818,0.27,1.119,0.496
	c0.763-0.267,1.646-0.097,2.256,0.514c0.609,0.609,0.781,1.491,0.513,2.254c0.227,0.301,0.4,0.673,0.496,1.119
	c0.039,0.18,0.039,0.368,0,0.548c-0.39,1.807-2.059,2.428-3.328,1.863c-0.489-0.217-1.059-0.126-1.438,0.252l-2.303,2.247
	l2.892,2.892c0.38,0.378,0.949,0.47,1.438,0.252c1.271-0.564,2.939,0.057,3.328,1.864C39.489,24.6,39.489,24.788,39.449,24.968"/>
<path fill="#FFFFFF" d="M33.659,12.861c-0.495,0.495-0.356,1.436,0.31,2.102c0.666,0.665,1.606,0.804,2.102,0.31
	c0.495-0.496,0.357-1.437-0.31-2.102C35.095,12.505,34.154,12.367,33.659,12.861"/>
<path fill="#FFFFFF" d="M37.446,12.978c0.306-0.307,0.221-0.889-0.191-1.302c-0.412-0.411-0.995-0.498-1.302-0.19
	c-0.306,0.307-0.221,0.889,0.191,1.3C36.557,13.199,37.14,13.284,37.446,12.978"/>
<path fill="#231F20" d="M15.491,21.7c-1.282,0-2.321-1.04-2.321-2.321c0-1.282,1.039-2.322,2.321-2.322
	c1.282,0,2.321,1.04,2.321,2.322C17.812,20.66,16.773,21.7,15.491,21.7"/>
<path fill="#231F20" d="M42.046,18.391c-0.44-0.756-0.724-1.713-0.847-2.874c-0.065-0.625-0.048-1.233,0.054-1.828
	c0.102-0.594,0.313-1.098,0.636-1.513c0.323-0.415,0.764-0.652,1.319-0.711c0.428-0.045,0.816,0.047,1.167,0.278
	c0.35,0.229,0.634,0.547,0.852,0.953c0.218,0.407,0.352,0.84,0.401,1.301l-1.438,0.225c-0.033-0.306-0.12-0.647-0.264-1.026
	s-0.368-0.553-0.673-0.521c-0.318,0.034-0.512,0.312-0.579,0.833c-0.069,0.523-0.064,1.139,0.011,1.852
	c0.093,0.881,0.236,1.582,0.429,2.1c0.192,0.518,0.481,0.756,0.867,0.715c0.272-0.029,0.448-0.211,0.529-0.544
	c0.081-0.335,0.114-0.734,0.099-1.199l1.286-0.014c0.051,0.489,0.019,0.95-0.101,1.384s-0.328,0.795-0.626,1.08
	c-0.3,0.285-0.683,0.454-1.151,0.503C43.144,19.478,42.486,19.146,42.046,18.391"/>
<polygon fill="#231F20" points="46.648,18.961 47.455,11.252 49.572,10.935 52.024,18.329 50.403,18.562 49.954,16.954 
	48.133,17.148 47.98,18.82 "/>
<polygon fill="#FFFFFF" points="48.278,15.896 49.55,15.762 48.46,12.184 "/>
<path fill="#231F20" d="M52.434,17.034l-0.538-5.065c-0.071-0.679,0.458-1.273,1.141-1.279l1.983,2.54l-0.022-2.872l1.563-0.104
	l0.804,7.569l-1.34,0.081l-1.979-2.491l-0.236,2.851C53.104,18.268,52.509,17.736,52.434,17.034"/>
<polygon fill="#231F20" points="58.246,17.729 57.602,10.271 58.782,10.146 59.719,17.573 "/>
<path fill="#231F20" d="M57.8,9.64l-0.813-0.501c-0.152-0.094-0.097-0.321,0.083-0.34l2.092-0.222
	c0.188-0.02,0.287,0.209,0.142,0.326l-0.851,0.678c-0.028,0.023-0.063,0.037-0.101,0.041l-0.429,0.045
	C57.88,9.671,57.836,9.662,57.8,9.64"/>
<path fill="#231F20" d="M64.043,17.176l-1.93-2.334l-0.312,2.448l-1.326,0.204l-0.804-7.569l1.55-0.227l1.569,2.708l0.419-2.796
	c0.668-0.137,1.311,0.333,1.383,1.012l0.537,5.065C65.203,16.388,64.734,17.033,64.043,17.176"/>
<path fill="#231F20" d="M66.545,15.867c-0.429-0.706-0.705-1.648-0.83-2.829c-0.134-1.255-0.049-2.242,0.251-2.96
	c0.302-0.718,0.866-1.121,1.693-1.209c1.58-0.167,2.507,1.042,2.782,3.625c0.123,1.16,0.047,2.143-0.228,2.947
	s-0.853,1.253-1.735,1.346C67.617,16.879,66.973,16.571,66.545,15.867"/>
<path fill="#FFFFFF" d="M69.009,14.802c0.065-0.483,0.048-1.203-0.054-2.16c-0.082-0.766-0.206-1.396-0.371-1.89
	s-0.431-0.721-0.798-0.682c-0.366,0.039-0.577,0.316-0.631,0.829c-0.056,0.514-0.043,1.153,0.038,1.92
	c0.102,0.962,0.234,1.674,0.396,2.134c0.162,0.459,0.423,0.67,0.782,0.632C68.731,15.547,68.943,15.286,69.009,14.802"/>
<path fill="#231F20" d="M72.408,15.85c-0.461-0.297-0.819-0.724-1.077-1.279l1.198-0.724l0.145,0.19
	c0.232,0.318,0.449,0.563,0.648,0.733c0.199,0.171,0.436,0.242,0.707,0.213c0.176-0.019,0.324-0.12,0.445-0.304
	c0.121-0.186,0.172-0.379,0.149-0.582c-0.021-0.19-0.085-0.358-0.197-0.504c-0.111-0.146-0.246-0.258-0.406-0.337l-1.417-0.652
	c-0.41-0.175-0.747-0.418-1.014-0.726c-0.267-0.307-0.421-0.668-0.465-1.082c-0.047-0.441,0.015-0.845,0.186-1.213
	c0.17-0.368,0.423-0.666,0.759-0.894c0.336-0.227,0.728-0.365,1.175-0.413c0.523-0.055,0.981,0.026,1.374,0.246
	c0.394,0.219,0.706,0.573,0.937,1.063l-1.201,0.704c-0.033-0.052-0.104-0.167-0.212-0.348c-0.108-0.18-0.229-0.307-0.364-0.378
	c-0.134-0.071-0.293-0.097-0.477-0.078c-0.223,0.024-0.388,0.113-0.491,0.268s-0.144,0.344-0.119,0.569
	c0.017,0.162,0.078,0.305,0.184,0.427c0.106,0.123,0.227,0.215,0.364,0.275l1.308,0.592c0.964,0.418,1.514,1.047,1.65,1.882
	c0.052,0.482-0.01,0.919-0.185,1.311c-0.175,0.394-0.437,0.711-0.784,0.953c-0.348,0.243-0.749,0.388-1.204,0.437
	C73.406,16.265,72.867,16.149,72.408,15.85"/>
<polygon fill="#231F20" points="42.72,28.01 41.922,20.501 43.395,20.222 44.078,26.661 46.581,26.396 46.555,27.602 "/>
<path fill="#231F20" d="M47.627,26.506c-0.429-0.706-0.704-1.648-0.83-2.828c-0.134-1.256-0.049-2.242,0.251-2.959
	c0.302-0.718,0.866-1.122,1.693-1.208c1.581-0.168,2.508,1.04,2.782,3.624c0.124,1.161,0.048,2.143-0.227,2.947
	c-0.275,0.804-0.854,1.252-1.735,1.347C48.7,27.519,48.055,27.212,47.627,26.506"/>
<path fill="#FFFFFF" d="M50.091,25.442c0.066-0.484,0.049-1.205-0.054-2.161c-0.081-0.767-0.205-1.396-0.37-1.89
	s-0.432-0.72-0.799-0.682c-0.366,0.04-0.576,0.315-0.631,0.83c-0.057,0.513-0.043,1.151,0.038,1.919
	c0.103,0.963,0.234,1.675,0.396,2.134c0.162,0.46,0.423,0.67,0.782,0.632C49.813,26.186,50.026,25.925,50.091,25.442"/>
<path fill="#231F20" d="M53.523,26.266c-0.432-0.448-0.69-1.069-0.775-1.861l-0.535-5.057l1.489-0.22l0.555,5.24
	c0.029,0.264,0.067,0.486,0.118,0.666c0.049,0.18,0.142,0.329,0.278,0.445c0.136,0.114,0.328,0.159,0.58,0.132
	c0.237-0.024,0.404-0.109,0.503-0.254c0.098-0.144,0.15-0.307,0.158-0.49c0.009-0.182-0.002-0.413-0.032-0.69l-0.54-5.097
	l1.351-0.268l0.524,4.946c0.076,0.719,0.005,1.384-0.216,1.997c-0.219,0.614-0.775,0.968-1.671,1.063
	C54.55,26.897,53.955,26.714,53.523,26.266"/>
<path fill="#231F20" d="M58.974,25.225c-0.44-0.757-0.722-1.715-0.846-2.874c-0.066-0.623-0.049-1.231,0.054-1.827
	c0.101-0.592,0.313-1.099,0.637-1.513c0.323-0.415,0.762-0.651,1.318-0.71c0.427-0.046,0.816,0.046,1.166,0.276
	c0.351,0.23,0.635,0.548,0.854,0.955c0.217,0.405,0.351,0.838,0.399,1.3l-1.438,0.226c-0.032-0.306-0.119-0.648-0.263-1.027
	c-0.143-0.379-0.367-0.553-0.673-0.521c-0.319,0.035-0.512,0.312-0.58,0.833c-0.067,0.522-0.064,1.139,0.011,1.851
	c0.094,0.883,0.237,1.583,0.429,2.1c0.193,0.52,0.482,0.757,0.869,0.716c0.271-0.028,0.447-0.21,0.528-0.545
	c0.081-0.334,0.113-0.732,0.1-1.198l1.284-0.014c0.052,0.489,0.019,0.95-0.101,1.385c-0.118,0.435-0.327,0.795-0.626,1.08
	s-0.683,0.452-1.15,0.503C60.071,26.312,59.413,25.98,58.974,25.225"/>
<path fill="#231F20" d="M64.303,24.735c-0.429-0.706-0.705-1.647-0.831-2.828c-0.132-1.255-0.048-2.241,0.252-2.959
	c0.302-0.718,0.865-1.121,1.693-1.209c1.58-0.167,2.507,1.041,2.782,3.625c0.123,1.159,0.047,2.142-0.228,2.945
	c-0.274,0.805-0.853,1.254-1.735,1.347C65.375,25.749,64.731,25.44,64.303,24.735"/>
<path fill="#FFFFFF" d="M66.768,23.671c0.065-0.483,0.047-1.203-0.056-2.159c-0.081-0.768-0.204-1.396-0.369-1.89
	c-0.166-0.493-0.433-0.721-0.799-0.683c-0.366,0.04-0.576,0.315-0.632,0.83c-0.055,0.514-0.042,1.153,0.039,1.918
	c0.103,0.964,0.234,1.676,0.396,2.135c0.162,0.46,0.423,0.67,0.782,0.631C66.488,24.416,66.701,24.155,66.768,23.671"/>
<path fill="#231F20" d="M70.166,24.72c-0.46-0.297-0.82-0.724-1.078-1.28l1.2-0.723l0.143,0.19c0.233,0.317,0.449,0.563,0.649,0.733
	c0.199,0.171,0.436,0.242,0.707,0.214c0.175-0.019,0.324-0.121,0.446-0.306c0.12-0.185,0.17-0.377,0.148-0.581
	c-0.021-0.189-0.086-0.358-0.197-0.504c-0.111-0.146-0.247-0.258-0.406-0.338l-1.417-0.652c-0.41-0.176-0.747-0.417-1.014-0.725
	c-0.267-0.309-0.421-0.67-0.465-1.083c-0.047-0.44,0.015-0.846,0.186-1.214c0.17-0.368,0.423-0.665,0.76-0.893
	c0.335-0.227,0.728-0.365,1.174-0.413c0.523-0.055,0.981,0.027,1.375,0.246c0.395,0.22,0.705,0.573,0.936,1.063l-1.201,0.706
	c-0.033-0.053-0.103-0.169-0.213-0.35c-0.108-0.181-0.229-0.306-0.363-0.378c-0.135-0.07-0.293-0.098-0.477-0.077
	c-0.224,0.023-0.387,0.112-0.491,0.267c-0.103,0.155-0.144,0.344-0.119,0.568c0.018,0.163,0.079,0.307,0.185,0.43
	c0.105,0.12,0.227,0.212,0.363,0.274l1.307,0.591c0.965,0.419,1.515,1.048,1.651,1.883c0.051,0.482-0.011,0.918-0.185,1.311
	c-0.175,0.393-0.436,0.711-0.783,0.953c-0.349,0.242-0.75,0.389-1.205,0.437C71.165,25.134,70.625,25.018,70.166,24.72"/>
<path fill="#231F20" d="M62.536,7.932c0.041,0.38-0.234,0.721-0.614,0.761c-0.382,0.041-0.723-0.234-0.763-0.615
	c-0.041-0.381,0.235-0.722,0.615-0.762C62.155,7.275,62.497,7.552,62.536,7.932"/>
<path fill="#231F20" d="M54.906,8.742c0.04,0.38-0.236,0.722-0.616,0.762c-0.38,0.041-0.722-0.235-0.763-0.615
	c-0.039-0.381,0.235-0.722,0.616-0.763C54.524,8.086,54.865,8.361,54.906,8.742"/>
<polygon fill="#231F20" points="64.482,31.208 64.481,30.037 65.598,30.037 65.598,31.111 "/>
<path fill="#231F20" d="M66.296,30.626c-0.29-0.426-0.435-0.991-0.435-1.698c0-0.7,0.142-1.262,0.428-1.681
	c0.287-0.421,0.701-0.631,1.244-0.631c0.537-0.001,0.952,0.21,1.247,0.63c0.296,0.419,0.443,0.979,0.443,1.681
	s-0.146,1.267-0.441,1.694c-0.295,0.427-0.711,0.641-1.247,0.641C66.998,31.263,66.585,31.051,66.296,30.626"/>
<path fill="#FFFFFF" d="M67.997,29.995c0.068-0.292,0.103-0.651,0.103-1.076c0-0.424-0.035-0.782-0.104-1.075
	c-0.068-0.292-0.224-0.439-0.462-0.438c-0.239,0-0.391,0.139-0.454,0.415c-0.063,0.275-0.095,0.613-0.095,1.012
	c0,0.489,0.032,0.878,0.095,1.167c0.065,0.29,0.216,0.436,0.455,0.436C67.774,30.435,67.928,30.288,67.997,29.995"/>
<path fill="#231F20" d="M69.581,26.767l1.117-0.095v0.724c0.158-0.228,0.356-0.413,0.594-0.554c0.235-0.141,0.537-0.211,0.903-0.211
	l0.002,1.092c-0.193,0-0.444,0.032-0.754,0.1c-0.312,0.066-0.56,0.183-0.745,0.348l0.001,2.939l-1.116,0.097L69.581,26.767z"/>
<path fill="#231F20" d="M72.541,32.302c-0.33-0.168-0.495-0.397-0.495-0.69c0-0.201,0.074-0.372,0.224-0.514
	c0.148-0.142,0.337-0.255,0.565-0.339c-0.202-0.058-0.354-0.133-0.455-0.224c-0.101-0.09-0.151-0.22-0.151-0.39
	c0-0.209,0.071-0.395,0.215-0.562c0.144-0.168,0.332-0.308,0.565-0.42c-0.478-0.275-0.717-0.66-0.717-1.154
	c0-0.299,0.08-0.552,0.242-0.762s0.373-0.367,0.63-0.475c0.258-0.106,0.526-0.16,0.81-0.16c0.419,0,0.791,0.112,1.115,0.335
	c0.159-0.145,0.319-0.263,0.482-0.359c0.162-0.095,0.364-0.144,0.608-0.144v0.741c-0.307,0-0.544,0.038-0.709,0.113
	c0.065,0.163,0.109,0.293,0.133,0.39c0.024,0.096,0.035,0.199,0.035,0.311c0,0.361-0.121,0.677-0.366,0.945
	c-0.244,0.268-0.642,0.402-1.195,0.402l-0.295-0.008c-0.047-0.006-0.106-0.009-0.175-0.009c-0.069,0.022-0.135,0.069-0.199,0.141
	c-0.064,0.072-0.096,0.147-0.096,0.228c0,0.074,0.026,0.138,0.08,0.19c0.053,0.054,0.119,0.086,0.198,0.096l1.275,0.144
	c0.738,0.084,1.108,0.443,1.109,1.075c0,0.495-0.189,0.841-0.57,1.044c-0.38,0.201-0.872,0.304-1.479,0.304
	C73.332,32.552,72.87,32.469,72.541,32.302"/>
<path fill="#FFFFFF" d="M74.883,31.244c0-0.09-0.023-0.156-0.071-0.199s-0.124-0.073-0.227-0.091
	c-0.104-0.019-0.273-0.036-0.507-0.052l-0.662-0.056c-0.095,0.031-0.178,0.089-0.247,0.171c-0.069,0.083-0.104,0.174-0.104,0.275
	c0,0.144,0.076,0.253,0.228,0.33c0.152,0.077,0.379,0.115,0.682,0.115C74.58,31.738,74.884,31.574,74.883,31.244"/>
<path fill="#FFFFFF" d="M74.34,28.522c0.09-0.125,0.135-0.302,0.135-0.53c0-0.233-0.047-0.408-0.144-0.525
	c-0.095-0.117-0.218-0.175-0.365-0.175c-0.165,0-0.295,0.065-0.391,0.199c-0.097,0.133-0.145,0.298-0.144,0.493
	c0,0.182,0.04,0.348,0.12,0.498c0.079,0.151,0.214,0.229,0.406,0.229C74.122,28.711,74.249,28.648,74.34,28.522"/>
<path fill="#FFFFFF" d="M34.189,12.154c0.569,0.129,1.107-0.11,1.203-0.532c0.096-0.423-0.287-0.87-0.855-0.999
	s-1.106,0.109-1.203,0.532C33.238,11.578,33.622,12.025,34.189,12.154"/>
<path fill="#FFFFFF" d="M37.33,13.56c-0.422,0.096-0.66,0.635-0.531,1.203c0.129,0.569,0.576,0.951,0.998,0.855
	c0.423-0.096,0.661-0.635,0.531-1.202C38.2,13.848,37.753,13.464,37.33,13.56"/>
<path fill="#FFFFFF" d="M24.486,10.624c-0.567,0.129-0.951,0.576-0.854,0.999c0.095,0.422,0.633,0.661,1.202,0.532
	c0.568-0.129,0.949-0.577,0.854-0.999C25.593,10.733,25.055,10.495,24.486,10.624"/>
<path fill="#FFFFFF" d="M21.693,13.56c-0.424-0.096-0.87,0.288-1,0.856c-0.128,0.567,0.109,1.106,0.532,1.202
	c0.423,0.096,0.869-0.287,0.999-0.855C22.354,14.195,22.115,13.656,21.693,13.56"/>
<path fill="#FFFFFF" d="M23.262,13.171c-0.665,0.665-0.804,1.606-0.309,2.102c0.494,0.495,1.436,0.355,2.102-0.31
	c0.665-0.666,0.804-1.606,0.309-2.102C24.869,12.367,23.928,12.505,23.262,13.171"/>
<path fill="#FFFFFF" d="M23.069,11.486c-0.307-0.307-0.889-0.22-1.301,0.191c-0.412,0.411-0.497,0.994-0.191,1.301
	c0.307,0.306,0.89,0.221,1.301-0.192C23.29,12.375,23.375,11.792,23.069,11.486"/>
<path fill="#FFFFFF" d="M16.681,19.379c0,0.644-0.522,1.166-1.167,1.166c-0.644,0-1.166-0.522-1.166-1.166
	c0-0.645,0.522-1.167,1.166-1.167C16.159,18.212,16.681,18.734,16.681,19.379"/>
<path fill="#FFFFFF" d="M18.734,18.254c0,0.645-0.522,1.166-1.167,1.166s-1.167-0.521-1.167-1.166c0-0.644,0.522-1.167,1.167-1.167
	S18.734,17.611,18.734,18.254"/>
<path fill="#FFFFFF" d="M15.487,34.979c0,0.645-0.522,1.166-1.167,1.166c-0.644,0-1.167-0.521-1.167-1.166s0.522-1.166,1.167-1.166
	C14.965,33.812,15.487,34.334,15.487,34.979"/>
<path fill="#FFFFFF" d="M13.884,36.674c0,0.645-0.522,1.167-1.166,1.167c-0.645,0-1.167-0.522-1.167-1.167s0.522-1.166,1.167-1.166
	C13.362,35.508,13.884,36.029,13.884,36.674"/>
<path fill="#FFFFFF" d="M11.807,37.729c0,0.643-0.522,1.166-1.166,1.166c-0.645,0-1.167-0.523-1.167-1.166
	c0-0.645,0.522-1.166,1.167-1.166C11.285,36.562,11.807,37.084,11.807,37.729"/>
<path fill="#FFFFFF" d="M9.492,38.062c0,0.645-0.521,1.167-1.166,1.167s-1.167-0.522-1.167-1.167s0.522-1.166,1.167-1.166
	S9.492,37.418,9.492,38.062"/>
<path fill="#FFFFFF" d="M7.2,37.604c0,0.645-0.522,1.166-1.166,1.166s-1.167-0.521-1.167-1.166s0.523-1.167,1.167-1.167
	S7.2,36.96,7.2,37.604"/>
<path fill="#FFFFFF" d="M5.176,36.423c0,0.645-0.521,1.166-1.166,1.166s-1.167-0.521-1.167-1.166s0.522-1.167,1.167-1.167
	S5.176,35.778,5.176,36.423"/>
<path fill="#FFFFFF" d="M3.668,34.642c0,0.643-0.522,1.166-1.167,1.166c-0.644,0-1.167-0.523-1.167-1.166
	c0-0.645,0.523-1.167,1.167-1.167C3.146,33.475,3.668,33.997,3.668,34.642"/>
<path fill="#FFFFFF" d="M2.826,32.46c0,0.644-0.522,1.167-1.167,1.167s-1.167-0.523-1.167-1.167c0-0.645,0.522-1.167,1.167-1.167
	S2.826,31.815,2.826,32.46"/>
<path fill="#FFFFFF" d="M2.753,30.128c0,0.643-0.522,1.165-1.167,1.165c-0.644,0-1.166-0.522-1.166-1.165
	c0-0.645,0.522-1.167,1.166-1.167C2.23,28.961,2.753,29.483,2.753,30.128"/>
<path fill="#FFFFFF" d="M3.441,27.902c0,0.645-0.522,1.166-1.167,1.166c-0.644,0-1.167-0.521-1.167-1.166s0.522-1.167,1.167-1.167
	C2.919,26.735,3.441,27.258,3.441,27.902"/>
<path fill="#FFFFFF" d="M5.261,26.45c0,0.645-0.522,1.166-1.167,1.166c-0.645,0-1.167-0.521-1.167-1.166s0.522-1.167,1.167-1.167
	C4.738,25.283,5.261,25.806,5.261,26.45"/>
<path fill="#FFFFFF" d="M7.251,25.232c0,0.645-0.522,1.165-1.166,1.165c-0.645,0-1.167-0.521-1.167-1.165s0.522-1.167,1.167-1.167
	C6.729,24.065,7.251,24.588,7.251,25.232"/>
<path fill="#FFFFFF" d="M9.242,23.988c0,0.644-0.522,1.165-1.167,1.165c-0.644,0-1.167-0.521-1.167-1.165
	c0-0.645,0.523-1.168,1.167-1.168C8.72,22.82,9.242,23.344,9.242,23.988"/>
<path fill="#FFFFFF" d="M11.248,22.773c0,0.645-0.522,1.167-1.166,1.167s-1.167-0.522-1.167-1.167c0-0.643,0.523-1.165,1.167-1.165
	S11.248,22.131,11.248,22.773"/>
<path fill="#FFFFFF" d="M14.698,20.705c-0.042,0.643-0.598,1.13-1.24,1.088c-0.643-0.043-1.13-0.598-1.088-1.241
	c0.042-0.643,0.598-1.129,1.24-1.087C14.253,19.507,14.741,20.062,14.698,20.705"/>
</svg>
